<svg width="25" height="31" viewBox="0 0 25 31" fill="none" xmlns="http://www.w3.org/2000/svg">
<path d="M17.8674 19.2834H16.7381L16.3379 18.8101C17.7387 16.8116 18.582 14.2171 18.582 11.3947C18.582 5.10133 14.4225 0 9.29102 0C4.15952 0 0 5.10133 0 11.3947C0 17.6881 4.15952 22.7895 9.29102 22.7895C11.5923 22.7895 13.7078 21.7552 15.3373 20.0372L15.7233 20.528V21.9129L22.8702 30.6606L25 28.0486L17.8674 19.2834ZM9.29102 19.2834C5.73185 19.2834 2.85878 15.7598 2.85878 11.3947C2.85878 7.02967 5.73185 3.50607 9.29102 3.50607C12.8502 3.50607 15.7233 7.02967 15.7233 11.3947C15.7233 15.7598 12.8502 19.2834 9.29102 19.2834Z" fill="#BEBEBE"/>
</svg>
