<svg width="31" height="26" viewBox="0 0 31 26" fill="none" xmlns="http://www.w3.org/2000/svg">
<path d="M26.6713 25.6503C26.6713 25.6503 18.3686 25.9315 15.6002 25.9315C12.8318 25.9315 4.52907 25.6503 4.52907 25.6503C2.38473 25.6503 0.630198 23.523 0.630198 20.923C0.630198 20.923 0.398254 15.0079 0.398254 13.0324C0.398254 11.057 0.630198 5.14188 0.630198 5.14188C0.630198 2.5419 2.38473 0.414558 4.52907 0.414558C4.52907 0.414558 12.8318 0.133331 15.6002 0.133331C18.3686 0.133331 26.6713 0.414558 26.6713 0.414558C28.8156 0.414558 30.5701 2.5419 30.5701 5.14188C30.5701 5.14188 30.8021 11.0521 30.8021 13.0324C30.8021 15.0129 30.5701 20.923 30.5701 20.923C30.5701 23.523 28.8156 25.6503 26.6713 25.6503Z" fill="#FF0000"/>
<path fill-rule="evenodd" clip-rule="evenodd" d="M12.6884 18.7966V7.26828L20.3697 13.0315L12.6884 18.7966Z" fill="white"/>
</svg>
